<?xml version="1.0" standalone="no"?><!DOCTYPE svg PUBLIC "-//W3C//DTD SVG 1.1//EN" "http://www.w3.org/Graphics/SVG/1.1/DTD/svg11.dtd"><svg t="1612334449779" class="icon" viewBox="0 0 1024 1024" version="1.1" xmlns="http://www.w3.org/2000/svg" p-id="2142" xmlns:xlink="http://www.w3.org/1999/xlink" width="200" height="200"><defs><style type="text/css"></style></defs><path d="M623.7 295.2H275l103.7-103.7c10.4-10.4 10.4-25.9 0-36.3-10.4-10.4-25.9-10.4-36.3 0L194.6 301.7c-5.2 5.2-7.8 11.7-7.8 18.1 0 6.5 2.6 13 7.8 18.1l146.5 146.5c10.4 10.4 25.9 10.4 36.3 0 10.4-10.4 10.4-25.9 0-36.3L276.2 347h347.4c97.2 0 175 77.8 175 175s-77.8 175-175 175H357.9c-14.3 0-25.9 11.7-25.9 25.9 0 14.3 11.7 25.9 25.9 25.9h265.7c125.7 0 226.9-101.1 226.9-226.9S749.4 295.2 623.7 295.2z" p-id="2143" fill="#1890FF"></path><path d="M623.7 295.2H275l103.7-103.7c10.4-10.4 10.4-25.9 0-36.3-10.4-10.4-25.9-10.4-36.3 0L194.6 301.7c-5.2 5.2-7.8 11.7-7.8 18.1 0 6.5 2.6 13 7.8 18.1l146.5 146.5c10.4 10.4 25.9 10.4 36.3 0 10.4-10.4 10.4-25.9 0-36.3L276.2 347h347.4c97.2 0 175 77.8 175 175s-77.8 175-175 175H357.9c-14.3 0-25.9 11.7-25.9 25.9 0 14.3 11.7 25.9 25.9 25.9h265.7c125.7 0 226.9-101.1 226.9-226.9S749.4 295.2 623.7 295.2z" p-id="2144" fill="#1890FF"></path></svg>