<svg xmlns="http://www.w3.org/2000/svg" width="14" height="14" viewBox="0 0 14 14">
  <g id="组_5100" data-name="组 5100" transform="translate(-126 -488)">
    <g id="矩形_2191" data-name="矩形 2191" transform="translate(126 488)" fill="#1890ff" stroke="#1890ff" stroke-width="1">
      <rect width="14" height="14" rx="3" stroke="none"/>
      <rect x="0.5" y="0.5" width="13" height="13" rx="2.5" fill="none"/>
    </g>
    <g id="组_5093" data-name="组 5093" transform="translate(42 -5.643)">
      <path id="路径_3696" data-name="路径 3696" d="M684.1,484.058a.931.931,0,0,1-.661-.274l-2.366-2.366A.934.934,0,0,1,682.4,480.1l2.366,2.366a.934.934,0,0,1-.66,1.595Zm0,0" transform="translate(-594.2 19.694)" fill="#dfecfd"/>
      <path id="路径_3697" data-name="路径 3697" d="M744.133,418.874a.934.934,0,0,1-.662-1.593l4.982-5.006a.934.934,0,1,1,1.324,1.318l-4.982,5.006a.931.931,0,0,1-.662.275Zm0,0" transform="translate(-654.17 84.878)" fill="#dfecfd"/>
    </g>
  </g>
</svg>
