<?xml version="1.0" standalone="no"?><!DOCTYPE svg PUBLIC "-//W3C//DTD SVG 1.1//EN" "http://www.w3.org/Graphics/SVG/1.1/DTD/svg11.dtd"><svg t="1615857102693" class="icon" viewBox="0 0 1024 1024" version="1.1" xmlns="http://www.w3.org/2000/svg" p-id="2699" xmlns:xlink="http://www.w3.org/1999/xlink" width="200" height="200"><defs><style type="text/css"></style></defs><path d="M 748.645 810.608 c 0 28.3456 -23.072 51.4165 -51.4155 51.4165 H 326.77 c -28.3445 0 -51.4155 -23.072 -51.4155 -51.4165 V 264.807 h 473.291 v 545.801 Z M 378.187 172.523 c 0 -5.9328 4.6144 -10.5472 10.5472 -10.5472 H 635.925 c 5.9328 0 10.5472 4.6144 10.5472 10.5472 v 30.9813 H 378.187 V 172.523 Z m 524.707 30.9813 H 707.776 V 172.523 c 0 -39.552 -32.2987 -71.8507 -71.8507 -71.8507 H 388.734 c -39.552 0 -71.8507 32.2987 -71.8507 71.8507 v 30.9813 h -195.776 c -17.1392 0 -30.9824 13.8432 -30.9824 30.9813 s 13.8432 30.9813 30.9813 30.9813 h 92.2859 v 545.141 c 0 62.6229 50.7563 113.379 113.378 113.379 h 370.46 c 62.6219 0 113.378 -50.7563 113.378 -113.379 V 264.807 h 92.2859 c 17.1381 0 30.9813 -13.8421 30.9813 -30.9813 s -13.8432 -30.3221 -30.9813 -30.3221 Z M 512 769.081 c 17.1392 0 30.9813 -13.8432 30.9813 -30.9824 v -329.589 c 0 -17.1392 -13.8421 -30.9813 -30.9813 -30.9813 s -30.9813 13.8421 -30.9813 30.9813 v 329.589 c 0 17.1392 13.8421 30.9824 30.9813 30.9824 m -144.361 0 c 17.1392 0 30.9813 -13.8432 30.9813 -30.9824 v -329.589 c 0 -17.1392 -13.8421 -30.9813 -30.9813 -30.9813 s -30.9813 13.8421 -30.9813 30.9813 v 329.589 c 0.6592 17.1392 14.5024 30.9824 30.9813 30.9824 m 288.721 0 c 17.1381 0 30.9813 -13.8432 30.9813 -30.9824 v -329.589 c 0 -17.1392 -13.8432 -30.9813 -30.9813 -30.9813 s -30.9813 13.8421 -30.9813 30.9813 v 329.589 c 0 17.1392 13.8421 30.9824 30.9813 30.9824" p-id="2700" fill="#d81e06"></path></svg>