<?xml version="1.0" standalone="no"?><!DOCTYPE svg PUBLIC "-//W3C//DTD SVG 1.1//EN" "http://www.w3.org/Graphics/SVG/1.1/DTD/svg11.dtd"><svg t="1605864025494" class="icon" viewBox="0 0 1024 1024" version="1.1" xmlns="http://www.w3.org/2000/svg" p-id="574" xmlns:xlink="http://www.w3.org/1999/xlink" width="200" height="200"><defs><style type="text/css"></style></defs><path d="M695.637 216.2a392.533 392.533 0 1 0 208.896 347 34.133 34.133 0 1 0-68.266 0 324.267 324.267 0 1 1-172.578-286.72 34.133 34.133 0 0 0 31.948-60.28z" p-id="575" fill="#ffffff"></path><path d="M544.563 312.593a34.133 34.133 0 1 0 29.082 61.713L727.04 302.08a34.133 34.133 0 0 0 17.135-43.486l-67.38-168.823a34.133 34.133 0 1 0-63.487 25.258l55.569 138.991-124.246 58.573z" p-id="576" fill="#ffffff"></path></svg>