<svg id="编辑" xmlns="http://www.w3.org/2000/svg" viewBox="0 0 15 15">
  <path id="路径_3533" data-name="路径 3533" d="M501.25,161.75a.749.749,0,0,0-.75.75v5a1,1,0,0,1-1,1h-10a1,1,0,0,1-1-1v-10a1,1,0,0,1,1-1h5a.75.75,0,1,0,0-1.5H489a2,2,0,0,0-2,2v11a2,2,0,0,0,2,2h11a2,2,0,0,0,2-2v-5.5a.749.749,0,0,0-.75-.75Zm0,0" transform="translate(-487 -155)" fill="#fff"/>
  <path id="路径_3534" data-name="路径 3534" d="M712.092,209.979a.8.8,0,0,0,1.131,0L721.9,201.3a.8.8,0,1,0-1.131-1.131l-8.674,8.672a.8.8,0,0,0,0,1.132Zm0,0" transform="translate(-707.862 -198.942)" fill="#fff"/>
</svg>
