<svg xmlns="http://www.w3.org/2000/svg" xmlns:xlink="http://www.w3.org/1999/xlink" width="11.439" height="11.666" viewBox="0 0 11.439 11.666">
  <defs>
    <clipPath id="clip-path">
      <rect id="矩形_1990" data-name="矩形 1990" width="11.439" height="11.666" fill="#5a5a5a"/>
    </clipPath>
  </defs>
  <g id="组_3573" data-name="组 3573" transform="translate(-472 -166)">
    <g id="组_3572" data-name="组 3572" transform="translate(472 166)">
      <g id="组_3571" data-name="组 3571" transform="translate(0 0)" clip-path="url(#clip-path)">
        <path id="路径_2932" data-name="路径 2932" d="M481.9,175.6a5.7,5.7,0,1,0-4.3,1.973,5.683,5.683,0,0,0,1.66-.246.536.536,0,1,0-.313-1.025,4.621,4.621,0,0,1-1.347.2,4.664,4.664,0,1,1,3.23-1.32c-.01.01-.014.023-.023.034a.4.4,0,0,0-.046.032.535.535,0,0,0,.017.757l1.63,1.558a.536.536,0,1,0,.74-.774Zm0,0" transform="translate(-471.882 -166.066)" fill="#5a5a5a"/>
      </g>
    </g>
    <path id="路径_2933" data-name="路径 2933" d="M661.327,277.033a.357.357,0,0,0,.416-.286,3.748,3.748,0,0,0,.047-1.248.357.357,0,1,0-.709.091,3.052,3.052,0,0,1-.041,1.027.356.356,0,0,0,.286.416Zm-.105-2.391a.357.357,0,0,0,.15-.483,3.908,3.908,0,0,0-5.833-1.284.357.357,0,1,0,.434.567,3.193,3.193,0,0,1,4.766,1.05.357.357,0,0,0,.483.149Zm0,0" transform="translate(-180.201 -104.221)" fill="#5a5a5a"/>
  </g>
</svg>
