<?xml version="1.0" standalone="no"?><!DOCTYPE svg PUBLIC "-//W3C//DTD SVG 1.1//EN" "http://www.w3.org/Graphics/SVG/1.1/DTD/svg11.dtd"><svg t="1611026842813" class="icon" viewBox="0 0 1024 1024" version="1.1" xmlns="http://www.w3.org/2000/svg" p-id="3726" xmlns:xlink="http://www.w3.org/1999/xlink" width="200" height="200"><defs><style type="text/css"></style></defs><path d="M790.8 490.8L489 189c-11.7-11.7-30.7-11.7-42.4 0s-11.7 30.7 0 42.4L727.1 512 446.6 792.5c-11.7 11.7-11.7 30.7 0 42.4 5.9 5.9 13.5 8.8 21.2 8.8s15.4-2.9 21.2-8.8l301.7-301.8c11.8-11.6 11.8-30.6 0.1-42.3z m-213.4 0L275.7 189c-11.7-11.7-30.7-11.7-42.4 0s-11.7 30.7 0 42.4L513.8 512 233.3 792.5c-11.7 11.7-11.7 30.7 0 42.4 5.9 5.9 13.5 8.8 21.2 8.8s15.4-2.9 21.2-8.8l301.7-301.8c11.8-11.6 11.8-30.6 0-42.3z" p-id="3727" fill="#000000"></path></svg>