<?xml version="1.0" standalone="no"?><!DOCTYPE svg PUBLIC "-//W3C//DTD SVG 1.1//EN" "http://www.w3.org/Graphics/SVG/1.1/DTD/svg11.dtd"><svg t="1611026801525" class="icon" viewBox="0 0 1024 1024" version="1.1" xmlns="http://www.w3.org/2000/svg" p-id="3156" xmlns:xlink="http://www.w3.org/1999/xlink" width="200" height="200"><defs><style type="text/css"></style></defs><path d="M296.9 512l280.5-280.5c11.7-11.7 11.7-30.7 0-42.4s-30.7-11.7-42.4 0L233.3 490.8c-11.7 11.7-11.7 30.7 0 42.4L535 835c5.9 5.9 13.5 8.8 21.2 8.8 7.7 0 15.4-2.9 21.2-8.8 11.7-11.7 11.7-30.7 0-42.4L296.9 512z m493.9 280.5L510.2 512l280.5-280.5c11.7-11.7 11.7-30.7 0-42.4s-30.7-11.7-42.4 0L446.6 490.8c-11.7 11.7-11.7 30.7 0 42.4L748.3 835c5.9 5.9 13.5 8.8 21.2 8.8 7.7 0 15.4-2.9 21.2-8.8 11.8-11.8 11.8-30.7 0.1-42.5z" p-id="3157" fill="#999999"></path></svg>